<?xml version="1.0" standalone="no"?>
<!DOCTYPE svg PUBLIC "-//W3C//DTD SVG 20010904//EN"
 "http://www.w3.org/TR/2001/REC-SVG-20010904/DTD/svg10.dtd">
<svg version="1.0" xmlns="http://www.w3.org/2000/svg"
 width="273.000000pt" height="260.000000pt" viewBox="0 0 273.000000 260.000000"
 preserveAspectRatio="xMidYMid meet">
<metadata>
Created by potrace 1.16, written by Peter Selinger 2001-2019
</metadata>
<g transform="translate(0.000000,260.000000) scale(0.100000,-0.100000)"
fill="#000000" stroke="none">
<path d="M155 2566 c-60 -28 -97 -66 -124 -126 -20 -44 -21 -60 -21 -1125 0
-1065 1 -1081 21 -1125 27 -60 64 -98 124 -126 l50 -24 1160 0 1160 0 50 24
c60 28 97 66 124 126 20 44 21 60 21 1125 l0 1080 -24 50 c-28 60 -66 97 -126
124 -44 20 -60 21 -1205 21 l-1160 0 -50 -24z m2330 -63 c29 -9 66 -33 90 -58
79 -79 75 -15 75 -1130 0 -1115 4 -1051 -75 -1130 -79 -80 -6 -75 -1205 -75
-1199 0 -1126 -5 -1205 75 -79 79 -75 15 -75 1130 0 1116 -4 1051 75 1130 77
78 2 73 1201 74 971 1 1075 -1 1119 -16z"/>
<path d="M268 2399 c-23 -12 -46 -35 -58 -59 -20 -38 -20 -57 -20 -1025 0
-968 0 -986 20 -1025 13 -26 34 -47 60 -60 39 -20 57 -20 1100 -20 1043 0
1061 0 1100 20 26 13 47 34 60 60 20 39 20 57 20 1025 0 968 0 986 -20 1025
-13 26 -34 47 -60 60 -39 20 -56 20 -1102 20 -1039 -1 -1064 -1 -1100 -21z
m611 -814 l230 -110 1 -55 0 -55 -294 -142 c-161 -79 -301 -146 -310 -149 -15
-6 -17 2 -14 62 l3 69 232 105 c127 58 230 108 228 111 -2 3 -108 52 -234 109
l-231 103 0 68 0 68 79 -37 c44 -20 183 -86 310 -147z m1301 -870 l0 -55 -460
0 -460 0 0 55 0 55 460 0 460 0 0 -55z"/>
</g>
</svg>
